<mxfile host="app.diagrams.net" modified="2023-02-20T03:34:36.032Z" agent="5.0 (Macintosh; Intel Mac OS X 10_15_7) AppleWebKit/537.36 (KHTML, like Gecko) Chrome/109.0.0.0 Safari/537.36" etag="Dh0Qrgi5VYAc9bZDhUhS" version="20.8.20" type="github">
  <diagram name="Page-1" id="74e2e168-ea6b-b213-b513-2b3c1d86103e">
    <mxGraphModel dx="954" dy="562" grid="1" gridSize="10" guides="1" tooltips="1" connect="1" arrows="1" fold="1" page="1" pageScale="1" pageWidth="1100" pageHeight="850" background="none" math="0" shadow="0">
      <root>
        <mxCell id="0" />
        <mxCell id="1" parent="0" />
        <mxCell id="77e6c97f196da883-1" value="小程序登录" style="swimlane;html=1;childLayout=stackLayout;startSize=20;rounded=0;shadow=0;labelBackgroundColor=none;strokeWidth=1;fontFamily=Verdana;fontSize=8;align=center;" parent="1" vertex="1">
          <mxGeometry x="70" y="40" width="960" height="750" as="geometry" />
        </mxCell>
        <mxCell id="77e6c97f196da883-2" value="微信小程序" style="swimlane;html=1;startSize=20;" parent="77e6c97f196da883-1" vertex="1">
          <mxGeometry y="20" width="230" height="730" as="geometry" />
        </mxCell>
        <mxCell id="77e6c97f196da883-10" value="wx.login" style="rounded=1;whiteSpace=wrap;html=1;shadow=0;labelBackgroundColor=none;strokeWidth=1;fontFamily=Verdana;fontSize=8;align=center;" parent="77e6c97f196da883-2" vertex="1">
          <mxGeometry x="58.75" y="110" width="107.5" height="40" as="geometry" />
        </mxCell>
        <mxCell id="cZG1L68u0AqyHe0dFKeQ-3" style="edgeStyle=orthogonalEdgeStyle;rounded=0;orthogonalLoop=1;jettySize=auto;html=1;entryX=0.5;entryY=0;entryDx=0;entryDy=0;" edge="1" parent="77e6c97f196da883-2" source="cZG1L68u0AqyHe0dFKeQ-2" target="77e6c97f196da883-10">
          <mxGeometry relative="1" as="geometry" />
        </mxCell>
        <mxCell id="cZG1L68u0AqyHe0dFKeQ-2" value="打开小程序" style="strokeWidth=2;html=1;shape=mxgraph.flowchart.start_1;whiteSpace=wrap;" vertex="1" parent="77e6c97f196da883-2">
          <mxGeometry x="65" y="40" width="95" height="40" as="geometry" />
        </mxCell>
        <mxCell id="cZG1L68u0AqyHe0dFKeQ-15" value="获取用户信息" style="rounded=1;whiteSpace=wrap;html=1;shadow=0;labelBackgroundColor=none;strokeWidth=1;fontFamily=Verdana;fontSize=8;align=center;" vertex="1" parent="77e6c97f196da883-2">
          <mxGeometry x="60" y="200" width="110" height="40" as="geometry" />
        </mxCell>
        <mxCell id="77e6c97f196da883-3" value="er-front-web" style="swimlane;html=1;startSize=20;" parent="77e6c97f196da883-1" vertex="1">
          <mxGeometry x="230" y="20" width="230" height="730" as="geometry" />
        </mxCell>
        <mxCell id="cZG1L68u0AqyHe0dFKeQ-4" value="获取用户信息" style="rounded=1;whiteSpace=wrap;html=1;shadow=0;labelBackgroundColor=none;strokeWidth=1;fontFamily=Verdana;fontSize=8;align=center;" vertex="1" parent="77e6c97f196da883-3">
          <mxGeometry x="60" y="110" width="100" height="40" as="geometry" />
        </mxCell>
        <mxCell id="cZG1L68u0AqyHe0dFKeQ-13" value="用户信息生成jwt" style="rounded=1;whiteSpace=wrap;html=1;shadow=0;labelBackgroundColor=none;strokeWidth=1;fontFamily=Verdana;fontSize=8;align=center;" vertex="1" parent="77e6c97f196da883-3">
          <mxGeometry x="70" y="200" width="90" height="40" as="geometry" />
        </mxCell>
        <mxCell id="77e6c97f196da883-4" value="ep-sys-server" style="swimlane;html=1;startSize=20;" parent="77e6c97f196da883-1" vertex="1">
          <mxGeometry x="460" y="20" width="290" height="730" as="geometry" />
        </mxCell>
        <mxCell id="77e6c97f196da883-14" value="" style="rounded=1;whiteSpace=wrap;html=1;shadow=0;labelBackgroundColor=none;strokeWidth=1;fontFamily=Verdana;fontSize=8;align=center;" parent="77e6c97f196da883-4" vertex="1">
          <mxGeometry x="30" y="560" width="100" height="60" as="geometry" />
        </mxCell>
        <mxCell id="cZG1L68u0AqyHe0dFKeQ-6" value="获取用户openid" style="rounded=1;whiteSpace=wrap;html=1;shadow=0;labelBackgroundColor=none;strokeWidth=1;fontFamily=Verdana;fontSize=8;align=center;" vertex="1" parent="77e6c97f196da883-4">
          <mxGeometry x="110" y="110" width="100" height="40" as="geometry" />
        </mxCell>
        <mxCell id="cZG1L68u0AqyHe0dFKeQ-10" value="用户绑定&lt;br&gt;缓存刷新" style="rounded=1;whiteSpace=wrap;html=1;shadow=0;labelBackgroundColor=none;strokeWidth=1;fontFamily=Verdana;fontSize=8;align=center;" vertex="1" parent="77e6c97f196da883-4">
          <mxGeometry x="110" y="200" width="100" height="40" as="geometry" />
        </mxCell>
        <mxCell id="77e6c97f196da883-5" value="微信服务端" style="swimlane;html=1;startSize=20;" parent="77e6c97f196da883-1" vertex="1">
          <mxGeometry x="750" y="20" width="210" height="730" as="geometry" />
        </mxCell>
        <mxCell id="cZG1L68u0AqyHe0dFKeQ-7" value="" style="rounded=1;whiteSpace=wrap;html=1;shadow=0;labelBackgroundColor=none;strokeWidth=1;fontFamily=Verdana;fontSize=8;align=center;" vertex="1" parent="77e6c97f196da883-5">
          <mxGeometry x="70" y="110" width="90" height="40" as="geometry" />
        </mxCell>
        <mxCell id="cZG1L68u0AqyHe0dFKeQ-5" style="edgeStyle=orthogonalEdgeStyle;rounded=0;orthogonalLoop=1;jettySize=auto;html=1;" edge="1" parent="77e6c97f196da883-1" source="77e6c97f196da883-10" target="cZG1L68u0AqyHe0dFKeQ-4">
          <mxGeometry relative="1" as="geometry" />
        </mxCell>
        <mxCell id="cZG1L68u0AqyHe0dFKeQ-8" style="edgeStyle=orthogonalEdgeStyle;rounded=0;orthogonalLoop=1;jettySize=auto;html=1;entryX=0;entryY=0.5;entryDx=0;entryDy=0;" edge="1" parent="77e6c97f196da883-1" source="cZG1L68u0AqyHe0dFKeQ-4" target="cZG1L68u0AqyHe0dFKeQ-6">
          <mxGeometry relative="1" as="geometry" />
        </mxCell>
        <mxCell id="cZG1L68u0AqyHe0dFKeQ-9" style="edgeStyle=orthogonalEdgeStyle;rounded=0;orthogonalLoop=1;jettySize=auto;html=1;entryX=0;entryY=0.5;entryDx=0;entryDy=0;" edge="1" parent="77e6c97f196da883-1" source="cZG1L68u0AqyHe0dFKeQ-6" target="cZG1L68u0AqyHe0dFKeQ-7">
          <mxGeometry relative="1" as="geometry" />
        </mxCell>
        <mxCell id="cZG1L68u0AqyHe0dFKeQ-11" style="edgeStyle=orthogonalEdgeStyle;rounded=0;orthogonalLoop=1;jettySize=auto;html=1;entryX=1;entryY=0.5;entryDx=0;entryDy=0;exitX=0.5;exitY=1;exitDx=0;exitDy=0;" edge="1" parent="77e6c97f196da883-1" source="cZG1L68u0AqyHe0dFKeQ-7" target="cZG1L68u0AqyHe0dFKeQ-10">
          <mxGeometry relative="1" as="geometry" />
        </mxCell>
        <mxCell id="cZG1L68u0AqyHe0dFKeQ-12" value="返回openid、unionid、session_key" style="edgeLabel;html=1;align=center;verticalAlign=middle;resizable=0;points=[];" vertex="1" connectable="0" parent="cZG1L68u0AqyHe0dFKeQ-11">
          <mxGeometry x="0.1439" relative="1" as="geometry">
            <mxPoint as="offset" />
          </mxGeometry>
        </mxCell>
        <mxCell id="cZG1L68u0AqyHe0dFKeQ-14" style="edgeStyle=orthogonalEdgeStyle;rounded=0;orthogonalLoop=1;jettySize=auto;html=1;entryX=1;entryY=0.5;entryDx=0;entryDy=0;" edge="1" parent="77e6c97f196da883-1" source="cZG1L68u0AqyHe0dFKeQ-10" target="cZG1L68u0AqyHe0dFKeQ-13">
          <mxGeometry relative="1" as="geometry" />
        </mxCell>
        <mxCell id="cZG1L68u0AqyHe0dFKeQ-16" style="edgeStyle=orthogonalEdgeStyle;rounded=0;orthogonalLoop=1;jettySize=auto;html=1;entryX=1;entryY=0.5;entryDx=0;entryDy=0;" edge="1" parent="77e6c97f196da883-1" source="cZG1L68u0AqyHe0dFKeQ-13" target="cZG1L68u0AqyHe0dFKeQ-15">
          <mxGeometry relative="1" as="geometry" />
        </mxCell>
      </root>
    </mxGraphModel>
  </diagram>
</mxfile>
